<?xml version="1.0" standalone="no"?>
<!DOCTYPE svg PUBLIC "-//W3C//DTD SVG 20010904//EN"
 "http://www.w3.org/TR/2001/REC-SVG-20010904/DTD/svg10.dtd">
<svg version="1.0" xmlns="http://www.w3.org/2000/svg"
 width="700.000000pt" height="700.000000pt" viewBox="0 0 700.000000 700.000000"
 preserveAspectRatio="xMidYMid meet">
<metadata>
Created by potrace 1.11, written by Peter Selinger 2001-2013
</metadata>
<g transform="translate(0.000000,700.000000) scale(0.100000,-0.100000)"
fill="#000000" stroke="none">
<path d="M1331 6989 c-238 -28 -499 -130 -705 -276 -106 -76 -265 -236 -343
-346 -119 -168 -205 -365 -255 -584 l-22 -98 -4 -2110 c-2 -1559 0 -2139 8
-2220 63 -592 461 -1086 1027 -1275 245 -81 42 -75 2463 -75 2421 0 2218 -6
2463 75 553 184 946 660 1022 1238 22 166 22 4201 0 4365 -45 336 -190 631
-430 872 -124 124 -244 209 -400 286 -135 66 -225 97 -370 131 l-100 22 -2140
2 c-1177 1 -2173 -2 -2214 -7z m4219 -519 c260 -22 457 -111 633 -285 173
-172 264 -372 287 -630 13 -148 13 -3962 0 -4110 -17 -195 -68 -342 -170 -489
-129 -187 -309 -318 -540 -393 l-85 -28 -2130 -3 c-1621 -3 -2147 0 -2200 9
-372 63 -688 351 -785 714 -11 44 -25 130 -30 190 -13 146 -13 3964 0 4110 21
254 114 457 286 629 168 168 380 266 618 286 138 11 3981 11 4116 0z"/>
<path d="M3770 5930 c-80 -10 -239 -30 -355 -44 -115 -14 -322 -40 -460 -56
-137 -17 -322 -40 -410 -50 -828 -100 -1078 -132 -1125 -141 -130 -26 -255
-118 -317 -234 -41 -79 -54 -129 -54 -217 0 -85 156 -1376 172 -1428 65 -199
241 -330 445 -330 41 0 255 22 476 50 222 27 700 86 1063 130 1039 127 1066
130 1125 151 157 55 272 194 301 364 11 66 7 111 -70 745 -45 371 -89 702 -97
734 -33 135 -122 242 -251 304 -74 35 -84 37 -188 39 -61 1 -174 -7 -255 -17z"/>
<path d="M2245 3109 c-150 -52 -271 -184 -305 -332 -5 -25 -28 -270 -50 -546
-45 -555 -45 -573 9 -687 53 -112 153 -201 273 -244 54 -19 65 -20 1193 -110
138 -11 306 -24 375 -30 1251 -100 1636 -130 1695 -130 133 0 246 50 337 149
61 66 93 126 114 215 20 88 87 963 81 1063 -11 181 -131 338 -305 399 -57 20
-131 28 -512 59 -245 19 -526 42 -625 50 -99 8 -236 19 -305 24 -238 19 -1016
81 -1135 91 -66 5 -181 14 -255 20 -74 6 -184 15 -245 21 -175 15 -272 11
-340 -12z"/>
</g>
</svg>
