<?xml version="1.0" standalone="no"?>
<!DOCTYPE svg PUBLIC "-//W3C//DTD SVG 20010904//EN"
 "http://www.w3.org/TR/2001/REC-SVG-20010904/DTD/svg10.dtd">
<svg version="1.0" xmlns="http://www.w3.org/2000/svg"
 width="700.000000pt" height="700.000000pt" viewBox="0 0 700.000000 700.000000"
 preserveAspectRatio="xMidYMid meet">
<metadata>
Created by potrace 1.11, written by Peter Selinger 2001-2013
</metadata>
<g transform="translate(0.000000,700.000000) scale(0.100000,-0.100000)"
fill="#000000" stroke="none">
<path d="M1350 6989 c-177 -20 -340 -68 -505 -150 -470 -231 -782 -683 -835
-1208 -13 -137 -14 -4128 0 -4259 21 -200 68 -360 156 -537 72 -146 162 -269
282 -388 257 -256 566 -401 935 -438 67 -6 830 -8 2192 -6 2292 4 2119 -1
2336 62 486 140 884 536 1024 1022 64 219 59 51 63 2333 2 1457 0 2111 -8
2197 -33 362 -183 685 -437 938 -246 245 -564 397 -911 434 -124 13 -4174 13
-4292 0z m4326 -353 c175 -31 310 -85 452 -180 271 -180 456 -465 507 -781 13
-77 15 -393 15 -2176 0 -2279 3 -2166 -57 -2348 -132 -406 -497 -718 -917
-786 -136 -22 -4216 -22 -4352 0 -486 79 -880 473 -959 960 -22 135 -22 4215
0 4350 79 488 466 877 955 960 117 20 4242 21 4356 1z"/>
<path d="M1468 6101 c-144 -46 -259 -164 -303 -311 -24 -79 -100 -1486 -86
-1578 27 -174 159 -325 328 -377 56 -18 41 -17 1543 -95 635 -33 1453 -76
1818 -95 365 -20 680 -33 700 -30 220 37 383 204 406 417 4 29 22 364 42 743
41 769 41 767 -20 891 -58 117 -182 215 -307 243 -49 11 -74 12 -1969 111
-740 38 -1470 77 -1623 85 -362 20 -457 19 -529 -4z"/>
<path d="M5195 3360 c-77 -5 -275 -16 -440 -25 -165 -8 -383 -20 -485 -25
-102 -6 -311 -17 -465 -25 -154 -8 -716 -37 -1250 -65 -533 -27 -1010 -54
-1060 -59 -215 -24 -384 -184 -416 -393 -7 -47 1 -244 30 -793 34 -629 42
-739 59 -792 63 -199 236 -323 450 -323 70 0 2275 113 3722 190 118 7 228 18
260 27 179 49 312 195 342 375 8 49 3 213 -26 753 -20 380 -39 713 -42 740
-14 129 -94 268 -195 337 -115 79 -209 95 -484 78z"/>
</g>
</svg>
