<svg width="28" height="29" viewBox="0 0 28 29" fill="none" xmlns="http://www.w3.org/2000/svg">
<g filter="url(#filter0_d)">
<path d="M14 2.85803C8.68477 2.85803 4.375 7.1678 4.375 12.483C4.375 17.7983 8.68477 22.108 14 22.108C19.3152 22.108 23.625 17.7983 23.625 12.483C23.625 7.1678 19.3152 2.85803 14 2.85803ZM18.125 12.9987C18.125 13.0932 18.0477 13.1705 17.9531 13.1705H10.0469C9.95234 13.1705 9.875 13.0932 9.875 12.9987V11.9674C9.875 11.8729 9.95234 11.7955 10.0469 11.7955H17.9531C18.0477 11.7955 18.125 11.8729 18.125 11.9674V12.9987Z" fill="white"/>
</g>
<defs>
<filter id="filter0_d" x="-1" y="-0.516968" width="30" height="30" filterUnits="userSpaceOnUse" color-interpolation-filters="sRGB">
<feFlood flood-opacity="0" result="BackgroundImageFix"/>
<feColorMatrix in="SourceAlpha" type="matrix" values="0 0 0 0 0 0 0 0 0 0 0 0 0 0 0 0 0 0 127 0"/>
<feOffset dy="2"/>
<feGaussianBlur stdDeviation="2"/>
<feColorMatrix type="matrix" values="0 0 0 0 0 0 0 0 0 0 0 0 0 0 0 0 0 0 0.1 0"/>
<feBlend mode="normal" in2="BackgroundImageFix" result="effect1_dropShadow"/>
<feBlend mode="normal" in="SourceGraphic" in2="effect1_dropShadow" result="shape"/>
</filter>
</defs>
</svg>
