<svg width="8" height="101" viewBox="0 0 8 101" fill="none" xmlns="http://www.w3.org/2000/svg">
<path d="M5 4.48303C5 3.9526 5.21071 3.44389 5.58579 3.06882C5.96086 2.69375 6.46957 2.48303 7 2.48303C7.26522 2.48303 7.51957 2.37768 7.70711 2.19014C7.89464 2.0026 8 1.74825 8 1.48303C8 1.21782 7.89464 0.963462 7.70711 0.775926C7.51957 0.588389 7.26522 0.483032 7 0.483032C5.93913 0.483032 4.92172 0.904459 4.17157 1.6546C3.42143 2.40475 3 3.42217 3 4.48303V47.483C3 48.0135 2.78929 48.5222 2.41421 48.8972C2.03914 49.2723 1.53043 49.483 1 49.483C0.734784 49.483 0.48043 49.5884 0.292893 49.7759C0.105357 49.9635 0 50.2178 0 50.483C0 50.7482 0.105357 51.0026 0.292893 51.1901C0.48043 51.3777 0.734784 51.483 1 51.483C1.53043 51.483 2.03914 51.6937 2.41421 52.0688C2.78929 52.4439 3 52.9526 3 53.483V96.483C3 97.5439 3.42143 98.5613 4.17157 99.3115C4.92172 100.062 5.93913 100.483 7 100.483C7.26522 100.483 7.51957 100.378 7.70711 100.19C7.89464 100.003 8 99.7482 8 99.483C8 99.2178 7.89464 98.9635 7.70711 98.7759C7.51957 98.5884 7.26522 98.483 7 98.483C6.46957 98.483 5.96086 98.2723 5.58579 97.8972C5.21071 97.5222 5 97.0135 5 96.483V53.483C4.99679 52.9136 4.87201 52.3513 4.63403 51.834C4.39604 51.3166 4.05032 50.856 3.62 50.483C4.05032 50.11 4.39604 49.6494 4.63403 49.1321C4.87201 48.6147 4.99679 48.0525 5 47.483V4.48303Z" fill="white"/>
</svg>
